# xmcd
#
# Track frame offsets:
#	150
#	20632
#	36614
#	54151
#	70550
#	88479
#	105354
#	123677
#	142347
#	161428
#	179302
#	191150
#
# Disc length: 2771 seconds
#
# Revision: 1
# Processed by: cddbd v1.4PL0 Copyright (c) Steve Scherf et al.
# Submitted via: EasyCDDAExtractor 6.0.0.1
#
DISCID=af0ad10c
DTITLE=Pam Tillis - Thunder and Roses
DYEAR=2000
DGENRE=Country
TTITLE0=Jagged Hearts
TTITLE1=Space
TTITLE2=It Just Isn't Raining
TTITLE3=Please
TTITLE4=Tryin'
TTITLE5=Thunder And Roses
TTITLE6=Whick Five Years
TTITLE7=Be A Man
TTITLE8=Off-White
TTITLE9=I Smile
TTITLE10=If I Didn't Love You
TTITLE11=Waiting On The Wind
EXTD=
EXTT0=
EXTT1=
EXTT2=
EXTT3=
EXTT4=
EXTT5=
EXTT6=
EXTT7=
EXTT8=
EXTT9=
EXTT10=
EXTT11=
PLAYORDER=
